<svg  version="1.1" preserveAspectRatio="none" xmlns="http://www.w3.org/2000/svg" width="500" height="500" viewBox="0 0 500 500"><rect width="100%" height="100%" fill="#F7F4F2" fill-opacity="1"/><svg viewBox="69.2004 116.1612 369.3202 268.9396" width="333" height="242.49116836826147" x="83.5px" y="128.7544px" xmlns="http://www.w3.org/2000/svg" xmlns:xlink="http://www.w3.org/1999/xlink" preserveAspectRatio="none"><defs></defs><style>.companyName {fill:#161616;fill-opacity:1;}.icon1 {fill:#161616;fill-opacity:1;}.icon2 {fill:#E5B7D2;fill-opacity:1;}.icon3 {fill:#848282;fill-opacity:1;}.icon3-str {stroke:#848282;stroke-opacity:1;}.text {fill:#161616;fill-opacity:1;}</style><g opacity="1" transform="rotate(0 69.2004 364.1008)">
<svg width="369.3202" height="21" x="69.2004" y="364.1008" version="1.1" preserveAspectRatio="none" viewBox="0.48 -29.6 677.36 38.52">
  <g transform="matrix(1 0 0 1 0 0)" class="text"><path id="id-6izo4zJp29" d="M19.20-16.08L14.24-28.20L16.88-28.20L20.88-18.12L24.92-28.20L27.60-28.20L22.64-16.08L28.08-3.24L38.36-28.40L41.40-28.40L29.36 0L26.88 0L20.92-14.04L14.92 0L12.48 0L0.48-28.40L3.48-28.40L13.80-3.24L19.20-16.08Z M63.96-12.20L63.96 0L61.24 0L61.24-11.64Q61.24-15.20 60.02-16.96Q58.80-18.72 56.44-18.72L56.44-18.72Q55.28-18.72 54.14-18.26Q53.00-17.80 52.00-17Q51.00-16.20 50.26-15.12Q49.52-14.04 49.16-12.76L49.16-12.76L49.16 0L46.44 0L46.44-29.20L49.16-29.20L49.16-16.12Q50.40-18.48 52.60-19.84Q54.80-21.20 57.36-21.20L57.36-21.20Q59.16-21.20 60.40-20.54Q61.64-19.88 62.44-18.70Q63.24-17.52 63.60-15.86Q63.96-14.20 63.96-12.20L63.96-12.20Z M80.36 0.40L80.36 0.40Q78.08 0.40 76.18-0.46Q74.28-1.32 72.88-2.82Q71.48-4.32 70.70-6.28Q69.92-8.24 69.92-10.48L69.92-10.48Q69.92-12.68 70.70-14.62Q71.48-16.56 72.86-18.02Q74.24-19.48 76.16-20.34Q78.08-21.20 80.32-21.20L80.32-21.20Q82.60-21.20 84.50-20.34Q86.40-19.48 87.76-18Q89.12-16.52 89.88-14.60Q90.64-12.68 90.64-10.52L90.64-10.52Q90.64-10.20 90.64-9.88Q90.64-9.56 90.60-9.44L90.60-9.44L72.76-9.44Q72.88-7.76 73.54-6.34Q74.20-4.92 75.24-3.88Q76.28-2.84 77.62-2.26Q78.96-1.68 80.48-1.68L80.48-1.68Q81.48-1.68 82.48-1.96Q83.48-2.24 84.32-2.72Q85.16-3.20 85.84-3.90Q86.52-4.60 86.88-5.44L86.88-5.44L89.24-4.80Q88.76-3.64 87.88-2.70Q87-1.76 85.84-1.06Q84.68-0.36 83.28 0.02Q81.88 0.40 80.36 0.40ZM72.72-11.52L88.04-11.52Q87.92-13.20 87.26-14.58Q86.60-15.96 85.58-16.96Q84.56-17.96 83.22-18.52Q81.88-19.08 80.36-19.08L80.36-19.08Q78.84-19.08 77.48-18.52Q76.12-17.96 75.10-16.96Q74.08-15.96 73.46-14.56Q72.84-13.16 72.72-11.52L72.72-11.52Z M106.84-20.92L106.84-18.44Q104.08-18.36 102.04-16.92Q100-15.48 99.16-12.96L99.16-12.96L99.16 0L96.44 0L96.44-20.84L99-20.84L99-15.84Q100.16-18.24 102.12-19.60Q104.08-20.96 106.32-20.96L106.32-20.96Q106.64-20.96 106.84-20.92L106.84-20.92Z M120.04 0.40L120.04 0.40Q117.76 0.40 115.86-0.46Q113.96-1.32 112.56-2.82Q111.16-4.32 110.38-6.28Q109.60-8.24 109.60-10.48L109.60-10.48Q109.60-12.68 110.38-14.62Q111.16-16.56 112.54-18.02Q113.92-19.48 115.84-20.34Q117.76-21.20 120-21.20L120-21.20Q122.28-21.20 124.18-20.34Q126.08-19.48 127.44-18Q128.80-16.52 129.56-14.60Q130.32-12.68 130.32-10.52L130.32-10.52Q130.32-10.20 130.32-9.88Q130.32-9.56 130.28-9.44L130.28-9.44L112.44-9.44Q112.56-7.76 113.22-6.34Q113.88-4.92 114.92-3.88Q115.96-2.84 117.30-2.26Q118.64-1.68 120.16-1.68L120.16-1.68Q121.16-1.68 122.16-1.96Q123.16-2.24 124-2.72Q124.84-3.20 125.52-3.90Q126.20-4.60 126.56-5.44L126.56-5.44L128.92-4.80Q128.44-3.64 127.56-2.70Q126.68-1.76 125.52-1.06Q124.36-0.36 122.96 0.02Q121.56 0.40 120.04 0.40ZM112.40-11.52L127.72-11.52Q127.60-13.20 126.94-14.58Q126.28-15.96 125.26-16.96Q124.24-17.96 122.90-18.52Q121.56-19.08 120.04-19.08L120.04-19.08Q118.52-19.08 117.16-18.52Q115.80-17.96 114.78-16.96Q113.76-15.96 113.14-14.56Q112.52-13.16 112.40-11.52L112.40-11.52Z M151.28 0L148.48 0L148.48-28.36L151.28-28.36L151.28-11.88L166.92-28.40L170.00-28.40L158.40-15.92L170.60 0L167.52 0L156.64-14.28L151.28-8.72L151.28 0Z M192.76-12.20L192.76 0L190.04 0L190.04-11.64Q190.04-15.36 188.94-17.04Q187.84-18.72 185.56-18.72L185.56-18.72Q184.36-18.72 183.16-18.28Q181.96-17.84 180.94-17.04Q179.92-16.24 179.12-15.14Q178.32-14.04 177.96-12.76L177.96-12.76L177.96 0L175.24 0L175.24-20.84L177.72-20.84L177.72-16.12Q179.00-18.40 181.38-19.80Q183.76-21.20 186.56-21.20L186.56-21.20Q188.28-21.20 189.48-20.56Q190.68-19.92 191.40-18.76Q192.12-17.60 192.44-15.92Q192.76-14.24 192.76-12.20L192.76-12.20Z M209.04 0.40L209.04 0.40Q206.76 0.40 204.88-0.46Q203.00-1.32 201.62-2.80Q200.24-4.28 199.48-6.24Q198.72-8.20 198.72-10.36L198.72-10.36Q198.72-12.56 199.50-14.52Q200.28-16.48 201.66-17.96Q203.04-19.44 204.92-20.32Q206.80-21.20 209.04-21.20L209.04-21.20Q211.28-21.20 213.18-20.32Q215.08-19.44 216.46-17.96Q217.84-16.48 218.62-14.52Q219.40-12.56 219.40-10.36L219.40-10.36Q219.40-8.20 218.64-6.24Q217.88-4.28 216.50-2.80Q215.12-1.32 213.22-0.46Q211.32 0.40 209.04 0.40ZM201.48-10.32L201.48-10.32Q201.48-8.56 202.08-7.06Q202.68-5.56 203.70-4.42Q204.72-3.28 206.10-2.64Q207.48-2 209.04-2L209.04-2Q210.60-2 211.98-2.66Q213.36-3.32 214.40-4.46Q215.44-5.60 216.04-7.12Q216.64-8.64 216.64-10.40L216.64-10.40Q216.64-12.12 216.04-13.66Q215.44-15.20 214.40-16.34Q213.36-17.48 211.98-18.14Q210.60-18.80 209.04-18.80L209.04-18.80Q207.48-18.80 206.12-18.14Q204.76-17.48 203.72-16.32Q202.68-15.16 202.08-13.62Q201.48-12.08 201.48-10.32Z M243.48-2.80L251.04-20.84L253.72-20.84L244.76 0L242.52 0L238.04-10.64L233.60 0L231.36 0L222.40-20.84L225.04-20.84L232.64-2.80L236.60-12.32L233.04-20.80L235.32-20.80L238.04-14L240.76-20.80L243.08-20.80L239.52-12.32L243.48-2.80Z M259.04-3.80L259.04-29.20L261.76-29.20L261.76-4.72Q261.76-3.56 262.40-2.90Q263.04-2.24 264.20-2.24L264.20-2.24Q264.64-2.24 265.24-2.36Q265.84-2.48 266.36-2.68L266.36-2.68L266.84-0.48Q266.08-0.16 264.98 0.04Q263.88 0.24 263.08 0.24L263.08 0.24Q261.20 0.24 260.12-0.82Q259.04-1.88 259.04-3.80L259.04-3.80Z M280.40 0.40L280.40 0.40Q278.12 0.40 276.22-0.46Q274.32-1.32 272.92-2.82Q271.52-4.32 270.74-6.28Q269.96-8.24 269.96-10.48L269.96-10.48Q269.96-12.68 270.74-14.62Q271.52-16.56 272.90-18.02Q274.28-19.48 276.20-20.34Q278.12-21.20 280.36-21.20L280.36-21.20Q282.64-21.20 284.54-20.34Q286.44-19.48 287.80-18Q289.16-16.52 289.92-14.60Q290.68-12.68 290.68-10.52L290.68-10.52Q290.68-10.20 290.68-9.88Q290.68-9.56 290.64-9.44L290.64-9.44L272.80-9.44Q272.92-7.76 273.58-6.34Q274.24-4.92 275.28-3.88Q276.32-2.84 277.66-2.26Q279-1.68 280.52-1.68L280.52-1.68Q281.52-1.68 282.52-1.96Q283.52-2.24 284.36-2.72Q285.20-3.20 285.88-3.90Q286.56-4.60 286.92-5.44L286.92-5.44L289.28-4.80Q288.80-3.64 287.92-2.70Q287.04-1.76 285.88-1.06Q284.72-0.36 283.32 0.02Q281.92 0.40 280.40 0.40ZM272.76-11.52L288.08-11.52Q287.96-13.20 287.30-14.58Q286.64-15.96 285.62-16.96Q284.60-17.96 283.26-18.52Q281.92-19.08 280.40-19.08L280.40-19.08Q278.88-19.08 277.52-18.52Q276.16-17.96 275.14-16.96Q274.12-15.96 273.50-14.56Q272.88-13.16 272.76-11.52L272.76-11.52Z M305.04 0.40L305.04 0.40Q302.88 0.40 301.04-0.50Q299.20-1.40 297.88-2.88Q296.56-4.36 295.82-6.30Q295.08-8.24 295.08-10.36L295.08-10.36Q295.08-12.56 295.80-14.54Q296.52-16.52 297.78-18Q299.04-19.48 300.78-20.34Q302.52-21.20 304.60-21.20L304.60-21.20Q307.24-21.20 309.28-19.82Q311.32-18.44 312.48-16.48L312.48-16.48L312.48-29.20L315.20-29.20L315.20-3.52Q315.20-2.40 316.16-2.40L316.16-2.40L316.16 0Q315.56 0.12 315.20 0.12L315.20 0.12Q314.24 0.12 313.52-0.50Q312.80-1.12 312.80-2L312.80-2L312.80-4.04Q311.56-2 309.44-0.80Q307.32 0.40 305.04 0.40ZM305.64-2L305.64-2Q306.64-2 307.78-2.40Q308.92-2.80 309.92-3.50Q310.92-4.20 311.62-5.14Q312.32-6.08 312.48-7.16L312.48-7.16L312.48-13.60Q312.08-14.68 311.32-15.62Q310.56-16.56 309.58-17.28Q308.60-18 307.48-18.40Q306.36-18.80 305.28-18.80L305.28-18.80Q303.60-18.80 302.24-18.08Q300.88-17.36 299.90-16.18Q298.92-15 298.40-13.48Q297.88-11.96 297.88-10.36L297.88-10.36Q297.88-8.68 298.48-7.16Q299.08-5.64 300.12-4.50Q301.16-3.36 302.58-2.68Q304-2 305.64-2Z M331.32 0.28L331.32 0.28Q329.16 0.28 327.38-0.62Q325.60-1.52 324.30-3Q323.00-4.48 322.28-6.40Q321.56-8.32 321.56-10.36L321.56-10.36Q321.56-12.52 322.26-14.50Q322.96-16.48 324.24-17.96Q325.52-19.44 327.30-20.32Q329.08-21.20 331.24-21.20L331.24-21.20Q333.92-21.20 335.88-19.86Q337.84-18.52 339.24-16.48L339.24-16.48L339.24-20.84L341.68-20.84L341.68 0.08Q341.68 2.24 340.86 3.90Q340.04 5.56 338.66 6.68Q337.28 7.80 335.42 8.36Q333.56 8.92 331.48 8.92L331.48 8.92Q327.88 8.92 325.68 7.64Q323.48 6.36 322.12 4.20L322.12 4.20L323.80 2.88Q325.04 4.88 327.08 5.82Q329.12 6.76 331.48 6.76L331.48 6.76Q333.00 6.76 334.36 6.34Q335.72 5.92 336.74 5.10Q337.76 4.28 338.36 3.02Q338.96 1.76 338.96 0.08L338.96 0.08L338.96-4.04Q337.76-2.04 335.68-0.88Q333.60 0.28 331.32 0.28ZM332.08-2L332.08-2Q333.28-2 334.44-2.44Q335.60-2.88 336.54-3.62Q337.48-4.36 338.12-5.28Q338.76-6.20 338.96-7.16L338.96-7.16L338.96-13.60Q338.52-14.72 337.76-15.68Q337.00-16.64 336.04-17.32Q335.08-18 333.98-18.40Q332.88-18.80 331.76-18.80L331.76-18.80Q330.00-18.80 328.62-18.06Q327.24-17.32 326.28-16.12Q325.32-14.92 324.82-13.40Q324.32-11.88 324.32-10.32L324.32-10.32Q324.32-8.64 324.92-7.12Q325.52-5.60 326.58-4.46Q327.64-3.32 329.04-2.66Q330.44-2 332.08-2Z M358.28 0.40L358.28 0.40Q356.00 0.40 354.10-0.46Q352.20-1.32 350.80-2.82Q349.40-4.32 348.62-6.28Q347.84-8.24 347.84-10.48L347.84-10.48Q347.84-12.68 348.62-14.62Q349.40-16.56 350.78-18.02Q352.16-19.48 354.08-20.34Q356.00-21.20 358.24-21.20L358.24-21.20Q360.52-21.20 362.42-20.34Q364.32-19.48 365.68-18Q367.04-16.52 367.80-14.60Q368.56-12.68 368.56-10.52L368.56-10.52Q368.56-10.20 368.56-9.88Q368.56-9.56 368.52-9.44L368.52-9.44L350.68-9.44Q350.80-7.76 351.46-6.34Q352.12-4.92 353.16-3.88Q354.20-2.84 355.54-2.26Q356.88-1.68 358.40-1.68L358.40-1.68Q359.40-1.68 360.40-1.96Q361.40-2.24 362.24-2.72Q363.08-3.20 363.76-3.90Q364.44-4.60 364.80-5.44L364.80-5.44L367.16-4.80Q366.68-3.64 365.80-2.70Q364.92-1.76 363.76-1.06Q362.60-0.36 361.20 0.02Q359.80 0.40 358.28 0.40ZM350.64-11.52L365.96-11.52Q365.84-13.20 365.18-14.58Q364.52-15.96 363.50-16.96Q362.48-17.96 361.14-18.52Q359.80-19.08 358.28-19.08L358.28-19.08Q356.76-19.08 355.40-18.52Q354.04-17.96 353.02-16.96Q352.00-15.96 351.38-14.56Q350.76-13.16 350.64-11.52L350.64-11.52Z M414.68 0L411.88 0L411.88-23.32L401.52-5.28L399.88-5.28L389.52-23.32L389.52 0L386.72 0L386.72-28.40L389.60-28.40L400.68-8.96L411.84-28.40L414.68-28.40L414.68 0Z M431.56 0.40L431.56 0.40Q429.28 0.40 427.38-0.46Q425.48-1.32 424.08-2.82Q422.68-4.32 421.90-6.28Q421.12-8.24 421.12-10.48L421.12-10.48Q421.12-12.68 421.90-14.62Q422.68-16.56 424.06-18.02Q425.44-19.48 427.36-20.34Q429.28-21.20 431.52-21.20L431.52-21.20Q433.80-21.20 435.70-20.34Q437.60-19.48 438.96-18Q440.32-16.52 441.08-14.60Q441.84-12.68 441.84-10.52L441.84-10.52Q441.84-10.20 441.84-9.88Q441.84-9.56 441.80-9.44L441.80-9.44L423.96-9.44Q424.08-7.76 424.74-6.34Q425.40-4.92 426.44-3.88Q427.48-2.84 428.82-2.26Q430.16-1.68 431.68-1.68L431.68-1.68Q432.68-1.68 433.68-1.96Q434.68-2.24 435.52-2.72Q436.36-3.20 437.04-3.90Q437.72-4.60 438.08-5.44L438.08-5.44L440.44-4.80Q439.96-3.64 439.08-2.70Q438.20-1.76 437.04-1.06Q435.88-0.36 434.48 0.02Q433.08 0.40 431.56 0.40ZM423.92-11.52L439.24-11.52Q439.12-13.20 438.46-14.58Q437.80-15.96 436.78-16.96Q435.76-17.96 434.42-18.52Q433.08-19.08 431.56-19.08L431.56-19.08Q430.04-19.08 428.68-18.52Q427.32-17.96 426.30-16.96Q425.28-15.96 424.66-14.56Q424.04-13.16 423.92-11.52L423.92-11.52Z M456.64 0.40L456.64 0.40Q454.36 0.40 452.46-0.46Q450.56-1.32 449.16-2.82Q447.76-4.32 446.98-6.28Q446.20-8.24 446.20-10.48L446.20-10.48Q446.20-12.68 446.98-14.62Q447.76-16.56 449.14-18.02Q450.52-19.48 452.44-20.34Q454.36-21.20 456.60-21.20L456.60-21.20Q458.88-21.20 460.78-20.34Q462.68-19.48 464.04-18Q465.40-16.52 466.16-14.60Q466.92-12.68 466.92-10.52L466.92-10.52Q466.92-10.20 466.92-9.88Q466.92-9.56 466.88-9.44L466.88-9.44L449.04-9.44Q449.16-7.76 449.82-6.34Q450.48-4.92 451.52-3.88Q452.56-2.84 453.90-2.26Q455.24-1.68 456.76-1.68L456.76-1.68Q457.76-1.68 458.76-1.96Q459.76-2.24 460.60-2.72Q461.44-3.20 462.12-3.90Q462.80-4.60 463.16-5.44L463.16-5.44L465.52-4.80Q465.04-3.64 464.16-2.70Q463.28-1.76 462.12-1.06Q460.96-0.36 459.56 0.02Q458.16 0.40 456.64 0.40ZM449.00-11.52L464.32-11.52Q464.20-13.20 463.54-14.58Q462.88-15.96 461.86-16.96Q460.84-17.96 459.50-18.52Q458.16-19.08 456.64-19.08L456.64-19.08Q455.12-19.08 453.76-18.52Q452.40-17.96 451.38-16.96Q450.36-15.96 449.74-14.56Q449.12-13.16 449.00-11.52L449.00-11.52Z M481.84-3.20L482.56-1Q482.32-0.88 481.86-0.68Q481.40-0.48 480.80-0.28Q480.20-0.08 479.44 0.08Q478.68 0.24 477.84 0.24L477.84 0.24Q476.96 0.24 476.16 0Q475.36-0.24 474.76-0.74Q474.16-1.24 473.80-2Q473.44-2.76 473.44-3.76L473.44-3.76L473.44-18.68L470.56-18.68L470.56-20.84L473.44-20.84L473.44-27.88L476.16-27.88L476.16-20.84L480.96-20.84L480.96-18.68L476.16-18.68L476.16-4.52Q476.24-3.36 476.98-2.82Q477.72-2.28 478.68-2.28L478.68-2.28Q479.84-2.28 480.72-2.66Q481.60-3.04 481.84-3.20L481.84-3.20Z M494.48 0.40L494.48 0.40Q492.04 0.40 489.72-0.40Q487.40-1.20 485.72-2.72L485.72-2.72L486.96-4.56Q488.72-3.12 490.54-2.40Q492.36-1.68 494.44-1.68L494.44-1.68Q496.96-1.68 498.46-2.70Q499.96-3.72 499.96-5.60L499.96-5.60Q499.96-6.48 499.56-7.06Q499.16-7.64 498.38-8.08Q497.60-8.52 496.42-8.86Q495.24-9.20 493.68-9.56L493.68-9.56Q491.88-10 490.56-10.44Q489.24-10.88 488.38-11.44Q487.52-12 487.10-12.82Q486.68-13.64 486.68-14.88L486.68-14.88Q486.68-16.44 487.30-17.64Q487.92-18.84 488.98-19.62Q490.04-20.40 491.46-20.80Q492.88-21.20 494.48-21.20L494.48-21.20Q496.88-21.20 498.84-20.42Q500.80-19.64 502.00-18.36L502.00-18.36L500.68-16.76Q499.52-17.96 497.86-18.56Q496.20-19.16 494.40-19.16L494.40-19.16Q493.32-19.16 492.40-18.94Q491.48-18.72 490.78-18.24Q490.08-17.76 489.68-17.02Q489.28-16.28 489.28-15.28L489.28-15.28Q489.28-14.44 489.56-13.92Q489.84-13.40 490.48-13.02Q491.12-12.64 492.10-12.34Q493.08-12.04 494.48-11.72L494.48-11.72Q496.48-11.24 498.00-10.76Q499.52-10.28 500.54-9.64Q501.56-9 502.08-8.08Q502.60-7.16 502.60-5.84L502.60-5.84Q502.60-2.96 500.40-1.28Q498.20 0.40 494.48 0.40Z M519.12-14.40L519.12-14.40Q519.12-16.96 520.02-19.50Q520.92-22.04 522.64-24.04Q524.36-26.04 526.88-27.30Q529.40-28.56 532.60-28.56L532.60-28.56Q536.40-28.56 539.10-26.84Q541.80-25.12 543.08-22.36L543.08-22.36L540.88-21Q540.20-22.40 539.22-23.36Q538.24-24.32 537.12-24.92Q536.00-25.52 534.80-25.78Q533.60-26.04 532.44-26.04L532.44-26.04Q529.88-26.04 527.92-25Q525.96-23.96 524.62-22.28Q523.28-20.60 522.60-18.50Q521.92-16.40 521.92-14.24L521.92-14.24Q521.92-11.88 522.74-9.72Q523.56-7.56 524.98-5.90Q526.40-4.24 528.34-3.26Q530.28-2.28 532.56-2.28L532.56-2.28Q533.76-2.28 535.02-2.58Q536.28-2.88 537.46-3.54Q538.64-4.20 539.64-5.18Q540.64-6.16 541.32-7.56L541.32-7.56L543.64-6.36Q542.96-4.76 541.72-3.54Q540.48-2.32 538.96-1.48Q537.44-0.64 535.74-0.20Q534.04 0.24 532.40 0.24L532.40 0.24Q529.48 0.24 527.04-1.04Q524.60-2.32 522.84-4.38Q521.08-6.44 520.10-9.06Q519.12-11.68 519.12-14.40Z M558.36 0.40L558.36 0.40Q556.08 0.40 554.20-0.46Q552.32-1.32 550.94-2.80Q549.56-4.28 548.80-6.24Q548.04-8.20 548.04-10.36L548.04-10.36Q548.04-12.56 548.82-14.52Q549.60-16.48 550.98-17.96Q552.36-19.44 554.24-20.32Q556.12-21.20 558.36-21.20L558.36-21.20Q560.60-21.20 562.50-20.32Q564.40-19.44 565.78-17.96Q567.16-16.48 567.94-14.52Q568.72-12.56 568.72-10.36L568.72-10.36Q568.72-8.20 567.96-6.24Q567.20-4.28 565.82-2.80Q564.44-1.32 562.54-0.46Q560.64 0.40 558.36 0.40ZM550.80-10.32L550.80-10.32Q550.80-8.56 551.40-7.06Q552.00-5.56 553.02-4.42Q554.04-3.28 555.42-2.64Q556.80-2 558.36-2L558.36-2Q559.92-2 561.30-2.66Q562.68-3.32 563.72-4.46Q564.76-5.60 565.36-7.12Q565.96-8.64 565.96-10.40L565.96-10.40Q565.96-12.12 565.36-13.66Q564.76-15.20 563.72-16.34Q562.68-17.48 561.30-18.14Q559.92-18.80 558.36-18.80L558.36-18.80Q556.80-18.80 555.44-18.14Q554.08-17.48 553.04-16.32Q552.00-15.16 551.40-13.62Q550.80-12.08 550.80-10.32Z M605.88-12.20L605.88 0L603.16 0L603.16-11.64Q603.16-15.28 602.00-17Q600.84-18.72 598.56-18.72L598.56-18.72Q597.36-18.72 596.30-18.28Q595.24-17.84 594.34-17.04Q593.44-16.24 592.76-15.14Q592.08-14.04 591.72-12.72L591.72-12.72L591.72 0L589.00 0L589.00-11.64Q589.00-15.36 587.88-17.04Q586.76-18.72 584.44-18.72L584.44-18.72Q582.08-18.72 580.24-17.08Q578.40-15.44 577.60-12.76L577.60-12.76L577.60 0L574.88 0L574.88-20.84L577.36-20.84L577.36-16.12Q578.64-18.52 580.72-19.86Q582.80-21.20 585.32-21.20L585.32-21.20Q587.96-21.20 589.54-19.72Q591.12-18.24 591.48-15.84L591.48-15.84Q594.40-21.20 599.52-21.20L599.52-21.20Q601.28-21.20 602.50-20.56Q603.72-19.92 604.46-18.74Q605.20-17.56 605.54-15.90Q605.88-14.24 605.88-12.20L605.88-12.20Z M616.76 0L614.04 0L614.04-18.68L611.16-18.68L611.16-20.84L614.04-20.84L614.04-21.40Q614.04-25.24 615.68-27.42Q617.32-29.60 620.16-29.60L620.16-29.60Q621.40-29.60 622.56-29.24Q623.72-28.88 624.56-28.28L624.56-28.28L623.72-26.32Q623.16-26.76 622.34-27Q621.52-27.24 620.68-27.24L620.68-27.24Q618.76-27.24 617.76-25.76Q616.76-24.28 616.76-21.48L616.76-21.48L616.76-20.84L622.52-20.84L622.52-18.68L616.76-18.68L616.76 0Z M635.68 0.40L635.68 0.40Q633.40 0.40 631.52-0.46Q629.64-1.32 628.26-2.80Q626.88-4.28 626.12-6.24Q625.36-8.20 625.36-10.36L625.36-10.36Q625.36-12.56 626.14-14.52Q626.92-16.48 628.30-17.96Q629.68-19.44 631.56-20.32Q633.44-21.20 635.68-21.20L635.68-21.20Q637.92-21.20 639.82-20.32Q641.72-19.44 643.10-17.96Q644.48-16.48 645.26-14.52Q646.04-12.56 646.04-10.36L646.04-10.36Q646.04-8.20 645.28-6.24Q644.52-4.28 643.14-2.80Q641.76-1.32 639.86-0.46Q637.96 0.40 635.68 0.40ZM628.12-10.32L628.12-10.32Q628.12-8.56 628.72-7.06Q629.32-5.56 630.34-4.42Q631.36-3.28 632.74-2.64Q634.12-2 635.68-2L635.68-2Q637.24-2 638.62-2.66Q640.00-3.32 641.04-4.46Q642.08-5.60 642.68-7.12Q643.28-8.64 643.28-10.40L643.28-10.40Q643.28-12.12 642.68-13.66Q642.08-15.20 641.04-16.34Q640.00-17.48 638.62-18.14Q637.24-18.80 635.68-18.80L635.68-18.80Q634.12-18.80 632.76-18.14Q631.40-17.48 630.36-16.32Q629.32-15.16 628.72-13.62Q628.12-12.08 628.12-10.32Z M662.60-20.92L662.60-18.44Q659.84-18.36 657.80-16.92Q655.76-15.48 654.92-12.96L654.92-12.96L654.92 0L652.20 0L652.20-20.84L654.76-20.84L654.76-15.84Q655.92-18.24 657.88-19.60Q659.84-20.96 662.08-20.96L662.08-20.96Q662.40-20.96 662.60-20.92L662.60-20.92Z M677.12-3.20L677.84-1Q677.60-0.88 677.14-0.68Q676.68-0.48 676.08-0.28Q675.48-0.08 674.72 0.08Q673.96 0.24 673.12 0.24L673.12 0.24Q672.24 0.24 671.44 0Q670.64-0.24 670.04-0.74Q669.44-1.24 669.08-2Q668.72-2.76 668.72-3.76L668.72-3.76L668.72-18.68L665.84-18.68L665.84-20.84L668.72-20.84L668.72-27.88L671.44-27.88L671.44-20.84L676.24-20.84L676.24-18.68L671.44-18.68L671.44-4.52Q671.52-3.36 672.26-2.82Q673.00-2.28 673.96-2.28L673.96-2.28Q675.12-2.28 676.00-2.66Q676.88-3.04 677.12-3.20L677.12-3.20Z"/></g>
</svg>
</g><g opacity="1" transform="rotate(0 70.8649 276.1008)">
<svg width="365.9912" height="70" x="70.8649" y="276.1008" version="1.1" preserveAspectRatio="none" viewBox="2.7539 -29.5508 158.69140000000002 30.3516">
  <g transform="matrix(1 0 0 1 0 0)" class="companyName"><path id="id-D6z1nYkh10" d="M5.33-5.37L5.33-5.37L5.08-4.84Q5.08-4.28 6.67-3.76Q8.26-3.24 10.17-3.24Q12.07-3.24 14.36-3.81Q16.64-4.38 18.33-5.20Q20.02-6.02 21.12-6.91Q22.23-7.81 22.23-8.48L22.23-8.48Q22.23-9.32 20.27-10.04Q18.32-10.76 14.60-11.63Q10.88-12.50 9.15-13.83Q7.42-15.16 7.42-17.06Q7.42-18.96 8.79-20.70Q10.16-22.44 12.35-23.79Q14.55-25.14 17.15-26.19L17.15-26.19Q22.52-28.36 27.11-28.36L27.11-28.36Q28.87-28.36 30.21-28.05L30.21-28.05Q32.79-27.44 32.79-26.45Q32.79-25.45 32.62-25.09Q32.44-24.73 32.33-24.61Q32.23-24.49 32.06-24.38Q31.89-24.26 31.82-24.20L31.82-24.20Q30.96-23.48 27.11-23.30L27.11-23.30Q25.78-23.24 25.66-23.16Q25.55-23.09 25.46-23.09Q25.37-23.09 25.25-23.24Q25.14-23.40 25.14-23.75Q25.14-24.10 25.90-25.04L25.90-25.04Q23.52-24.90 20.81-23.95Q18.11-22.99 16.11-21.79Q14.12-20.59 12.79-19.42Q11.46-18.26 11.46-17.78Q11.46-17.30 11.76-16.99L11.76-16.99Q12.58-16.11 16.31-15.16L16.31-15.16Q20.18-14.16 21.46-13.55Q22.75-12.95 23.60-12.40Q24.45-11.86 24.96-11.29L24.96-11.29Q26.15-9.92 26.15-8.52Q26.15-7.11 25.40-5.88Q24.65-4.65 23.13-3.50Q21.62-2.34 19.57-1.45L19.57-1.45Q15.08 0.57 8.87 0.57L8.87 0.57Q4.34 0.57 3.09-1.84L3.09-1.84Q2.75-2.44 2.75-3.10Q2.75-3.75 3.06-4.28Q3.36-4.80 3.79-5.08L3.79-5.08Q4.63-5.61 4.98-5.61Q5.33-5.61 5.33-5.37Z M40.65-4.34Q41.66-4.98 41.95-5.22Q42.25-5.47 42.64-5.80Q43.03-6.13 43.28-6.13L43.28-6.13Q43.67-6.13 43.67-5.24Q43.67-4.36 42.80-3.33Q41.93-2.30 40.64-1.59Q39.36-0.88 37.89-0.35L37.89-0.35Q34.98 0.72 32.94 0.72Q30.90 0.72 29.26-0.62Q27.62-1.95 27.62-4.11Q27.62-6.27 28.69-8.43Q29.77-10.59 31.46-12.22Q33.14-13.85 35.38-14.86Q37.62-15.88 39.80-15.88L39.80-15.88Q40.86-15.88 41.70-15.27Q42.54-14.67 42.54-13.61Q42.54-12.56 41.49-11.08Q40.45-9.61 39.38-9.61L39.38-9.61Q38.13-9.61 38.13-10.80L38.13-10.80Q38.13-11.11 38.71-11.91Q39.30-12.71 39.30-13.00Q39.30-13.28 39.08-13.28L39.08-13.28Q38.01-13.28 36.78-12.54Q35.55-11.80 34.54-10.98Q33.54-10.16 32.64-9.14L32.64-9.14Q30.68-6.93 30.68-4.55L30.68-4.55Q30.68-3.59 31.30-2.90Q31.91-2.21 33.37-2.21Q34.82-2.21 36.29-2.55Q37.75-2.89 38.70-3.29Q39.65-3.69 40.65-4.34Z M59.73-5.76L59.73-5.76Q59.86-4.86 59.86-4.35Q59.86-3.83 59.68-3.45Q59.49-3.07 58.86-2.37Q58.22-1.68 57.34-0.98L57.34-0.98Q55.20 0.72 52.95 0.72L52.95 0.72Q49.73 0.72 49.73-2.13L49.73-2.13Q49.73-4.61 54.04-12.01L54.04-12.01Q54.20-12.29 54.26-12.40L54.26-12.40Q52.75-11.35 48.51-6.65Q44.26-1.95 42.85 0L42.85 0Q42.73 0.18 42.27 0.39Q41.80 0.61 41.53 0.61Q41.27 0.61 40.97 0.44Q40.66 0.27 40.59 0.27L40.59 0.27Q40.33 0.27 40.33 0.11Q40.33-0.06 41.03-1.69Q41.72-3.32 42.85-5.74L42.85-5.74Q45.96-12.42 52.09-23.13L52.09-23.13Q54.24-26.88 55.45-28.44L55.45-28.44Q56.31-29.55 58.34-29.55L58.34-29.55Q58.77-29.55 58.83-29.30Q58.89-29.04 58.89-28.75Q58.89-28.46 58.77-28.16L58.77-28.16L56.68-24.90Q50.47-15.21 47.32-8.85L47.32-8.85Q50.37-12.56 53.24-14.57L53.24-14.57Q55.02-15.84 55.91-15.84Q56.80-15.84 57.52-15.56Q58.24-15.27 58.24-14.20L58.24-14.20Q58.24-13.81 56.97-11.31L56.97-11.31Q53.16-3.81 53.16-2.98Q53.16-2.15 53.85-2.15L53.85-2.15Q54.84-2.15 56.91-4.08L56.91-4.08Q58.48-5.55 58.89-5.96L58.89-5.96Q59.12-6.13 59.32-6.13L59.32-6.13Q59.69-6.13 59.73-5.76Z M71.52-14.88Q72.11-14.88 72.72-14.36Q73.34-13.83 73.34-12.74Q73.34-11.66 72.58-9.93Q71.82-8.20 70.49-6.42Q69.16-4.63 67.57-3.06Q65.98-1.48 64.13-0.48Q62.29 0.53 60.78 0.53Q59.28 0.53 58.37-0.42Q57.46-1.37 57.46-3.06Q57.46-4.75 58.29-6.80Q59.12-8.85 60.43-10.42Q61.74-11.99 63.26-13.24L63.26-13.24Q66.45-15.80 68.85-15.80L68.85-15.80Q69.92-15.80 70.47-15.27L70.47-15.27Q70.66-15.10 70.66-14.96L70.66-14.96L70.66-14.84Q70.94-14.88 71.52-14.88ZM69.55-12.29L69.55-12.29L69.41-12.29Q68.73-12.29 68.73-13.28L68.73-13.28Q67.30-12.81 65.74-11.64Q64.18-10.47 62.95-8.87L62.95-8.87Q60.45-5.66 60.41-3.46L60.41-3.46Q60.41-2.36 61.21-2.36Q62.01-2.36 63.59-3.42Q65.18-4.47 66.73-6.43Q68.28-8.38 69.05-9.81Q69.82-11.25 69.82-11.77Q69.82-12.29 69.55-12.29Z M89.10-29.32Q90.04-29.32 90.75-28.76Q91.46-28.20 91.46-27.11Q91.46-26.02 90.25-23.68Q89.04-21.35 87.34-18.92Q85.64-16.48 83.50-13.75L83.50-13.75Q80.10-9.41 76.97-5.96L76.97-5.96Q76.95-5.72 76.81-5.09Q76.66-4.45 76.66-3.81Q76.66-3.16 77.26-2.65Q77.85-2.13 78.73-2.13Q79.61-2.13 80.62-2.75Q81.62-3.38 82.36-4.14L82.36-4.14Q84.32-6.15 84.79-6.15Q85.25-6.15 85.25-4.73L85.25-4.73L85.25-4.34Q85.25-3.57 84.98-3.22L84.98-3.22Q83.34-1.21 81.29-0.22Q79.24 0.76 77.40 0.76Q75.57 0.76 74.61-0.36Q73.65-1.48 73.65-3.44L73.65-3.44Q73.65-7.25 75.69-12.39Q77.73-17.54 80.29-21.15L80.29-21.15Q86.05-29.32 89.10-29.32L89.10-29.32ZM88.22-26.07L88.22-26.07Q88.22-26.37 88.03-26.37L88.03-26.37Q87.34-26.37 84.43-22.46Q81.52-18.55 80.22-16.23Q78.93-13.91 77.77-10.39L77.77-10.39Q80.08-13.13 84.15-18.92Q88.22-24.71 88.22-26.07Z M98.13-14.84L98.13-14.84Q99.61-14.84 99.61-13.83L99.61-13.83Q99.61-13.28 99.36-13.03Q99.10-12.77 98.27-11.34Q97.44-9.90 96.44-7.67Q95.43-5.43 95.14-3.85L95.14-3.85Q95.08-3.65 95.08-3.30L95.08-3.30Q95.08-2.23 95.66-2.23Q96.25-2.23 97.05-2.78Q97.85-3.34 98.48-3.97Q99.10-4.61 99.70-5.27Q100.29-5.94 100.41-6.04Q100.53-6.13 100.76-6.13L100.76-6.13Q101.13-6.13 101.21-5.57Q101.29-5 101.29-4.39Q101.29-3.79 101.17-3.55L101.17-3.55Q100.61-2.44 98.68-0.88Q96.76 0.68 95.19 0.68Q93.61 0.68 92.87-0.27Q92.13-1.23 92.13-2.39Q92.13-3.55 92.52-4.43L92.52-4.43Q90.90-2.32 88.80-0.86Q86.70 0.61 85.37 0.61Q84.04 0.61 83.20-0.20L83.20-0.20Q82.13-1.19 82.13-2.96Q82.13-4.73 82.92-6.51Q83.71-8.30 85-9.78Q86.29-11.25 87.83-12.46L87.83-12.46Q91.07-15 93.81-15L93.81-15Q94.86-15 95.53-14.65Q96.19-14.30 96.37-13.77L96.37-13.77Q96.84-14.47 97.16-14.66Q97.48-14.84 98.13-14.84ZM95.53-12.68L95.53-12.68Q92.19-12.68 88.61-8.96L88.61-8.96Q87.34-7.64 86.28-5.78Q85.21-3.93 85.21-3.24Q85.21-2.56 85.61-2.56L85.61-2.56Q86.15-2.56 88.65-4.72Q91.15-6.88 91.97-7.89L91.97-7.89Q92.87-9.02 95.53-12.68Z M106.72-11.88L105.90-10.64Q110.51-15.88 113.75-15.88L113.75-15.88Q114.55-15.88 115.07-15.40Q115.59-14.92 115.59-14.16Q115.59-13.40 114.50-11.61Q113.42-9.82 112.50-8.59L112.50-8.59Q112.01-7.97 111.40-7.97Q110.78-7.97 110.44-8.42Q110.10-8.87 110.10-9.47L110.10-9.47Q110.10-10.82 111.54-12.52L111.54-12.52L111.50-12.56Q110.86-12.50 108.31-10.02Q105.76-7.54 103.97-5.58Q102.19-3.61 100.10-0.80L100.10-0.80Q99.49 0.04 99.07 0.04Q98.65 0.04 97.96-0.22Q97.27-0.49 97.12-0.61Q96.97-0.72 96.97-1.00Q96.97-1.27 97.13-1.63Q97.29-1.99 97.71-2.66Q98.13-3.32 98.97-4.80Q99.82-6.29 101.62-9.30Q103.42-12.30 103.77-12.93L103.77-12.93Q104.51-14.22 104.98-14.80L104.98-14.80Q105.86-15.92 107.95-15.92L107.95-15.92Q108.42-15.92 108.42-15.33L108.42-15.33Q108.42-14.41 106.72-11.88L106.72-11.88Z M130.66-5.76L130.66-5.76Q130.80-4.86 130.80-4.35Q130.80-3.83 130.62-3.45Q130.43-3.07 129.79-2.37Q129.16-1.68 128.28-0.98L128.28-0.98Q126.13 0.72 123.89 0.72L123.89 0.72Q120.66 0.72 120.66-2.13L120.66-2.13Q120.66-4.61 124.98-12.01L124.98-12.01Q125.14-12.29 125.20-12.40L125.20-12.40Q123.69-11.35 119.44-6.65Q115.20-1.95 113.79 0L113.79 0Q113.67 0.18 113.20 0.39Q112.73 0.61 112.47 0.61Q112.21 0.61 111.90 0.44Q111.60 0.27 111.52 0.27L111.52 0.27Q111.27 0.27 111.27 0.11Q111.27-0.06 111.96-1.69Q112.66-3.32 113.79-5.74L113.79-5.74Q116.89-12.42 123.03-23.13L123.03-23.13Q125.18-26.88 126.39-28.44L126.39-28.44Q127.25-29.55 129.28-29.55L129.28-29.55Q129.71-29.55 129.77-29.30Q129.82-29.04 129.82-28.75Q129.82-28.46 129.71-28.16L129.71-28.16L127.62-24.90Q121.41-15.21 118.26-8.85L118.26-8.85Q121.31-12.56 124.18-14.57L124.18-14.57Q125.96-15.84 126.85-15.84Q127.73-15.84 128.46-15.56Q129.18-15.27 129.18-14.20L129.18-14.20Q129.18-13.81 127.91-11.31L127.91-11.31Q124.10-3.81 124.10-2.98Q124.10-2.15 124.79-2.15L124.79-2.15Q125.78-2.15 127.85-4.08L127.85-4.08Q129.41-5.55 129.82-5.96L129.82-5.96Q130.06-6.13 130.25-6.13L130.25-6.13Q130.63-6.13 130.66-5.76Z M145.74-6.13L145.74-6.13Q146.11-6.13 146.19-5.57Q146.27-5 146.27-4.39Q146.27-3.79 146.15-3.55L146.15-3.55Q145.59-2.46 143.67-0.89Q141.76 0.68 140.04 0.68L140.04 0.68Q138.98 0.68 138.09 0.05Q137.19-0.59 137.19-2.17Q137.19-3.75 138.03-5.27L138.03-5.27Q133.18 0.80 130.43 0.80L130.43 0.80Q129.34 0.80 128.66 0.02Q127.99-0.76 127.99-1.59Q127.99-2.42 128.22-3.31Q128.46-4.20 128.72-4.90Q128.98-5.61 129.50-6.64Q130.02-7.68 130.27-8.14Q130.53-8.61 131.08-9.56Q131.64-10.51 132.55-12.11Q133.46-13.71 134.05-14.48Q134.65-15.25 135.21-15.26Q135.78-15.27 136.21-14.80Q136.64-14.34 136.64-14.04Q136.64-13.75 135.33-11.41L135.33-11.41Q131.46-4.41 131.46-3.26L131.46-3.26Q131.46-2.97 131.68-2.97L131.68-2.97Q132.62-2.97 136.35-7.03Q140.08-11.09 140.66-12.24Q141.25-13.38 141.81-14.16Q142.36-14.94 142.64-15.12L142.64-15.12Q143.48-15.66 144.80-15.70L144.80-15.70Q145.02-15.70 145.14-15.68Q145.25-15.66 145.41-15.35Q145.57-15.04 145.57-14.86L145.57-14.86Q145.39-14.32 144.01-11.95Q142.64-9.59 142.48-9.28L142.48-9.28Q140.18-4.51 140.18-3.07L140.18-3.07Q140.18-2.25 140.80-2.25L140.80-2.25Q141.93-2.40 143.54-4.06L143.54-4.06Q144.12-4.67 144.70-5.29Q145.27-5.92 145.41-6.03Q145.55-6.13 145.74-6.13Z M161.09-27.87L161.09-27.87Q156.97-21.68 153.07-14.92L153.07-14.92Q153.96-15.39 155.09-15.60Q156.21-15.80 156.67-15.80Q157.13-15.80 157.46-15.77Q157.79-15.74 158.31-15.56Q158.83-15.37 159.20-15.04L159.20-15.04Q160.10-14.24 160.10-12.77Q160.10-11.31 159.31-9.56Q158.52-7.81 157.16-6.05Q155.80-4.30 154.19-2.78Q152.58-1.27 150.72-0.31Q148.87 0.64 147.27 0.64L147.27 0.64Q146.52 0.64 145.56-0.31Q144.59-1.27 144.59-2.83Q144.59-4.39 145.94-7.68Q147.29-10.96 149.21-14.35Q151.13-17.73 153.13-20.96Q155.14-24.18 156.54-26.23Q157.95-28.28 158.26-28.59Q158.57-28.91 159.40-29.12Q160.23-29.34 160.84-29.33Q161.45-29.32 161.45-28.77L161.45-28.77Q161.45-28.42 161.09-27.87ZM155.82-9.12L155.82-9.12Q156.62-10.53 156.62-11.68Q156.62-12.83 155.89-12.83Q155.16-12.83 153.64-12.20Q152.13-11.56 151.91-11.56Q151.70-11.56 151.35-11.91L151.35-11.91Q147.54-5.06 147.54-3.16L147.54-3.16Q147.54-2.29 148.11-2.29L148.11-2.29Q149.45-2.29 151.99-4.54Q154.53-6.80 155.82-9.12Z"/></g>
</svg>
</g><g opacity="1" transform="rotate(0 180.6623 116.1612)">
<svg width="146.3965" height="129.9396" x="180.6623" y="116.1612" version="1.1" preserveAspectRatio="none" viewBox="0.8788690567016602 1.0613179206848145 3.2422266006469727 2.8777589797973633">
  <g transform="matrix(1 0 0 1 0 0)" class="icon1"><title>icon</title><g><path d="M3.42617,1.90124c-.19767.256-.38938.51666-.581.77729q-.09333-.34261-.18477-.68574c-.03523-.13317-.25495-.171-.29019-.01444-.06958.30921-.14338.6174-.21177.92686-.16142-.18972-.31226-.38688-.471-.58059-.08359-.102-.28237-.01313-.2388.12032a13.22251,13.22251,0,0,0,.62746,1.46271c.03116.067.12811.01588.10124-.05078-.10266-.25466-.19985-.51368-.28252-.77693.07675.0906.15552.17894.23415.26527a.159.159,0,0,0,.2685-.05681c.048-.20715.09205-.41508.13525-.6232l.10289.38207a.15176.15176,0,0,0,.27207.05069c.14566-.19581.29227-.391.43757-.58717-.04352.32185-.10236.6422-.16925.959a1.18009,1.18009,0,0,0-.5583.17182.156.156,0,0,0,.1398.27871,1.52839,1.52839,0,0,1,.53563-.15376.15584.15584,0,0,0,.1525-.106c.11473-.554.18659-1.11052.25052-1.67208C3.714,1.83172,3.50777,1.79556,3.42617,1.90124Z"></path><path d="M1.22127,1.69153a.18178.18178,0,0,0-.0354-.07019A.10092.10092,0,0,0,1.169,1.59922l-.00985-.00887A.16054.16054,0,0,0,.889,1.65153a.1682.1682,0,0,0,.0095.13635.21325.21325,0,0,0,.069.07769.12543.12543,0,0,0,.0616.023.12485.12485,0,0,0,.0637.00037.16652.16652,0,0,0,.12845-.19739Z"></path><path d="M2.68756,1.25792a.42118.42118,0,0,0-.0361-.10073.18.18,0,0,0-.0983-.08737.16062.16062,0,0,0-.08036-.0059.16839.16839,0,0,0-.12268.15337.37466.37466,0,0,0,.01288.10931.17113.17113,0,0,0,.07181.10469.16879.16879,0,0,0,.1248.02325.16689.16689,0,0,0,.10469-.07181A.1636.1636,0,0,0,2.68756,1.25792Z"></path><path d="M4.11781,1.34144a.18172.18172,0,0,0-.03911-.07657l-.01651-.01428a.11455.11455,0,0,0-.052-.03063L3.97158,1.213l-.001.00008-.004-.00042a.19352.19352,0,0,0-.08321.01832.17258.17258,0,0,0-.07392.06863l-.00283.00328-.01811.03814-.00721.04017a.119.119,0,0,0,.00989.05913.07863.07863,0,0,0,.01807.03591.07834.07834,0,0,0,.02743.03067.07929.07929,0,0,0,.03507.02282.11716.11716,0,0,0,.05924.01627.16224.16224,0,0,0,.02745-.00054.17812.17812,0,0,0,.06751-.017.14865.14865,0,0,0,.05257-.0421.142.142,0,0,0,.0344-.05935A.171.171,0,0,0,4.11781,1.34144Z"></path></g></g>
</svg>
</g></svg></svg>